<?xml version="1.0" standalone="no"?>
<!DOCTYPE svg PUBLIC "-//W3C//DTD SVG 20010904//EN"
 "http://www.w3.org/TR/2001/REC-SVG-20010904/DTD/svg10.dtd">
<svg version="1.0" xmlns="http://www.w3.org/2000/svg"
 width="512.000000pt" height="512.000000pt" viewBox="0 0 512.000000 512.000000"
 preserveAspectRatio="xMidYMid meet">

<g transform="translate(0.000000,512.000000) scale(0.100000,-0.100000)"
fill="#000000" stroke="none">
<path d="M2464 4221 c-220 -35 -404 -173 -499 -373 -46 -97 -65 -189 -65 -325
l0 -113 -225 0 c-238 0 -274 -6 -289 -47 -13 -32 -307 -2287 -302 -2309 3 -11
39 -52 80 -92 l74 -72 1321 0 1320 0 53 47 c62 55 108 110 108 129 0 29 -300
2283 -306 2299 -15 39 -53 45 -289 45 l-225 0 0 113 c0 135 -19 228 -64 322
-82 173 -219 294 -397 350 -85 26 -216 38 -295 26z m260 -181 c80 -27 146 -71
206 -137 97 -106 130 -202 130 -375 l0 -118 -500 0 -500 0 0 103 c0 56 7 131
15 166 43 182 189 329 371 376 76 19 200 13 278 -15z m870 -817 c9 -46 276
-2079 276 -2104 0 -12 -10 -33 -22 -46 l-21 -23 -1267 0 -1266 0 -26 28 -25
27 143 1070 c78 589 143 1071 143 1073 1 1 464 2 1030 2 l1029 0 6 -27z"/>
</g>
</svg>
