<svg width="20" height="20" viewBox="0 0 20 20" fill="none" xmlns="http://www.w3.org/2000/svg">
<path fill-rule="evenodd" clip-rule="evenodd" d="M8.67184 1.875C8.68163 1.875 8.69144 1.875 8.70127 1.875L11.3282 1.875C11.5927 1.87497 11.841 1.87494 12.0491 1.8987C12.2809 1.92516 12.5246 1.98635 12.7521 2.15028C12.9795 2.31421 13.1146 2.52604 13.213 2.73757C13.3014 2.92751 13.3799 3.16314 13.4635 3.41409L13.7838 4.375H17.5C17.8452 4.375 18.125 4.65483 18.125 5C18.125 5.34518 17.8452 5.625 17.5 5.625H16.4181L15.9319 12.918C15.8606 13.987 15.8031 14.8504 15.6681 15.528C15.5277 16.2324 15.2891 16.8208 14.7961 17.282C14.3031 17.7432 13.7001 17.9423 12.9879 18.0354C12.3029 18.125 11.4375 18.125 10.3662 18.125H9.63382C8.56249 18.125 7.69713 18.125 7.01209 18.0354C6.29988 17.9423 5.69693 17.7432 5.20393 17.282C4.71094 16.8208 4.47225 16.2324 4.33192 15.528C4.19694 14.8504 4.13939 13.987 4.06815 12.918L3.58195 5.625H2.5C2.15482 5.625 1.875 5.34518 1.875 5C1.875 4.65483 2.15482 4.375 2.5 4.375H6.21619L6.5272 3.44198C6.53031 3.43266 6.53341 3.42335 6.5365 3.41407C6.62011 3.16313 6.69862 2.9275 6.78698 2.73757C6.88539 2.52604 7.02049 2.31421 7.24793 2.15028C7.47537 1.98635 7.71906 1.92516 7.95085 1.8987C8.15898 1.87494 8.40734 1.87497 8.67184 1.875ZM7.53381 4.375H12.4662L12.2869 3.83727C12.1907 3.5486 12.1343 3.38219 12.0797 3.26482C12.055 3.21186 12.0381 3.18568 12.029 3.17354C12.0248 3.16791 12.022 3.16502 12.022 3.16502L12.0212 3.16433L12.0203 3.16379C12.0203 3.16379 12.0166 3.16199 12.01 3.15979C11.9956 3.15504 11.9654 3.14726 11.9074 3.14063C11.7787 3.12595 11.603 3.125 11.2987 3.125H8.70127C8.39699 3.125 8.22126 3.12595 8.09264 3.14063C8.03461 3.14726 8.00443 3.15504 7.99004 3.15979C7.98337 3.16199 7.97972 3.16379 7.97972 3.16379L7.97882 3.16433L7.97802 3.16502C7.97802 3.16502 7.97516 3.16791 7.97097 3.17354C7.9619 3.18568 7.94498 3.21186 7.92034 3.26482C7.86574 3.38219 7.80927 3.5486 7.71305 3.83727L7.53381 4.375ZM4.83472 5.625L5.31246 12.791C5.38734 13.9142 5.44069 14.6958 5.55783 15.2838C5.67146 15.8541 5.83007 16.1561 6.05791 16.3692C6.28576 16.5824 6.59756 16.7206 7.17422 16.796C7.76873 16.8738 8.55206 16.875 9.67777 16.875H10.3222C11.4479 16.875 12.2313 16.8738 12.8258 16.796C13.4024 16.7206 13.7142 16.5824 13.9421 16.3692C14.1699 16.1561 14.3285 15.8541 14.4422 15.2838C14.5593 14.6958 14.6127 13.9142 14.6875 12.791L15.1653 5.625H4.83472Z" fill="#646D8C"/>
</svg>
